<?xml version="1.0" standalone="no"?><!DOCTYPE svg PUBLIC "-//W3C//DTD SVG 1.1//EN" "http://www.w3.org/Graphics/SVG/1.1/DTD/svg11.dtd"><svg t="1586795627156" class="icon" viewBox="0 0 1110 1024" version="1.1" xmlns="http://www.w3.org/2000/svg" p-id="52888" xmlns:xlink="http://www.w3.org/1999/xlink" width="216.796875" height="200"><defs><style type="text/css"></style></defs><path d="M946.939661 418.312678a23.170169 23.170169 0 0 0 23.100746-23.239593V116.197966c0-64.04339-51.781424-116.197966-115.486373-116.197966H115.477695C51.781424 0 0 52.154576 0 116.197966v790.154848c0 64.04339 51.781424 116.197966 115.477695 116.197966h739.076339c63.696271 0 115.477695-52.154576 115.477695-116.197966V766.906576a23.170169 23.170169 0 0 0-23.092068-23.239593 23.170169 23.170169 0 0 0-23.100746 23.239593v139.446238c0 38.44339-31.084475 69.71878-69.284881 69.718779H115.477695c-38.200407 0-69.284881-31.284068-69.284881-69.718779V232.395932h877.654779v162.677153a23.178847 23.178847 0 0 0 23.092068 23.239593zM46.192814 185.916746V116.197966c0-38.44339 31.084475-69.71878 69.284881-69.71878h739.076339c38.200407 0 69.293559 31.27539 69.293559 69.71878v69.71878H46.192814z m69.284881-46.479187a23.170169 23.170169 0 0 0 23.100746-23.239593 23.170169 23.170169 0 0 0-23.100746-23.239593 23.170169 23.170169 0 0 0-23.092068 23.239593 23.170169 23.170169 0 0 0 23.092068 23.239593z m92.385627 0a23.170169 23.170169 0 0 0 23.100746-23.239593 23.170169 23.170169 0 0 0-23.100746-23.239593 23.170169 23.170169 0 0 0-23.092068 23.239593 23.170169 23.170169 0 0 0 23.092068 23.239593z m92.385627 0a23.170169 23.170169 0 0 0 23.100746-23.239593 23.170169 23.170169 0 0 0-23.100746-23.239593 23.170169 23.170169 0 0 0-23.092068 23.239593 23.170169 23.170169 0 0 0 23.092068 23.239593z m723.186983 419.197831c56.536949 9.346169 85.174237 32.490305 85.174237 68.842305 0 39.085559-40.595525 69.71878-92.420338 69.71878-49.117288 0-88.740881-27.752136-92.24678-64.564068a23.213559 23.213559 0 0 1 20.783729-25.330983c12.652475-1.345085 23.968542 8.131254 25.218169 20.913898 0.876475 9.389559 18.891932 22.493288 46.236204 22.493288 27.812881 0 46.244881-13.988881 46.244881-23.239593 0-6.968407-8.087864-16.635661-46.470509-22.99661l-3.045966-24.081356-3.696813 22.90983c-56.684475-9.294102-85.365153-32.446915-85.365153-68.833627 0-39.094237 40.604203-69.71878 92.429017-69.718779 49.099932 0 88.740881 27.743458 92.24678 64.564067a23.213559 23.213559 0 0 1-20.783729 25.322305c-12.20122 1.770305-23.97722-8.087864-25.226847-20.913898-0.867797-9.389559-18.891932-22.449898-46.236204-22.449898-27.804203 0-46.236203 13.988881-46.236203 23.239593 0 5.71878 6.048542 16.314576 46.557288 22.961898l6.838237 1.162848z m-231.007457 0c56.536949 9.346169 85.174237 32.490305 85.174237 68.842305 0 39.085559-40.595525 69.71878-92.420339 69.71878-49.117288 0-88.740881-27.752136-92.24678-64.564068a23.213559 23.213559 0 0 1 20.783729-25.330983c12.426847-1.345085 23.968542 8.131254 25.21817 20.913898 0.876475 9.389559 18.891932 22.493288 46.236203 22.493288 27.812881 0 46.244881-13.988881 46.244881-23.239593 0-6.968407-8.087864-16.635661-46.427118-22.99661l-3.089356-24.081356-3.696814 22.90983c-56.684475-9.294102-85.365153-32.446915-85.365152-68.833627 0-39.094237 40.604203-69.71878 92.429017-69.718779 49.099932 0 88.740881 27.743458 92.246779 64.564067a23.213559 23.213559 0 0 1-20.783729 25.322305c-12.340068 1.770305-23.97722-8.087864-25.226847-20.913898-0.867797-9.337492-18.891932-22.449898-46.236203-22.449898-27.804203 0-46.236203 13.988881-46.236204 23.239593 0 5.71878 6.048542 16.314576 46.557288 22.961898l6.838238 1.162848zM623.598644 604.229424a23.170169 23.170169 0 0 1 23.092068 23.239593c0 38.44339-31.084475 69.71878-69.284881 69.71878h-46.192814c-38.200407 0-69.284881-31.27539-69.284881-69.71878V534.510644c0-38.44339 31.084475-69.71878 69.284881-69.71878h46.192814c38.200407 0 69.284881 31.284068 69.284881 69.71878a23.170169 23.170169 0 0 1-23.092068 23.239593 23.170169 23.170169 0 0 1-23.100746-23.239593 23.204881 23.204881 0 0 0-23.092067-23.239593h-46.192814a23.204881 23.204881 0 0 0-23.100746 23.239593v92.958373a23.204881 23.204881 0 0 0 23.100746 23.239593h46.192814c12.695864 0 23.092068-10.413559 23.092067-23.239593a23.170169 23.170169 0 0 1 23.100746-23.239593z" fill="#e94e2d" p-id="52889" data-spm-anchor-id="a313x.7781069.0.i34" class="selected"></path></svg>