<?xml version="1.0" standalone="no"?><!DOCTYPE svg PUBLIC "-//W3C//DTD SVG 1.1//EN" "http://www.w3.org/Graphics/SVG/1.1/DTD/svg11.dtd"><svg t="1586794887725" class="icon" viewBox="0 0 1024 1024" version="1.1" xmlns="http://www.w3.org/2000/svg" p-id="19735" xmlns:xlink="http://www.w3.org/1999/xlink" width="200" height="200"><defs><style type="text/css"></style></defs><path d="M506.88 58.368c4.096-9.216 7.168-9.216 11.264 0l105.472 324.608c4.096 9.216 13.312 16.384 22.528 16.384h343.04c9.216 0 11.264 4.096 4.096 11.264L716.8 611.328c-7.168 5.12-11.264 16.384-9.216 27.648l105.472 326.656c4.096 9.216-2.048 13.312-9.216 5.12l-276.48-200.704c-9.216-5.12-20.48-5.12-27.648 0l-276.48 200.704c-7.168 5.12-11.264 4.096-9.216-5.12l105.472-326.656c2.048-9.216 0-20.48-9.216-27.648L32.768 409.6c-7.168-5.12-5.12-10.24 4.096-10.24H378.88c11.264 0 20.48-7.168 22.528-16.384 0-1.024 105.472-324.608 105.472-324.608z" fill="#f4ea2a" p-id="19736"></path></svg>