<?xml version="1.0" standalone="no"?><!DOCTYPE svg PUBLIC "-//W3C//DTD SVG 1.1//EN" "http://www.w3.org/Graphics/SVG/1.1/DTD/svg11.dtd"><svg t="1586795019180" class="icon" viewBox="0 0 1024 1024" version="1.1" xmlns="http://www.w3.org/2000/svg" p-id="29128" xmlns:xlink="http://www.w3.org/1999/xlink" width="200" height="200"><defs><style type="text/css"></style></defs><path d="M832.2 127.9v766H192.7v-766h639.5m0-64H192.7c-35.3 0-64 28.7-64 64v766c0 35.3 28.7 64 64 64h639.5c35.3 0 64-28.7 64-64v-766c0-35.4-28.7-64-64-64z" fill="#A3D1C1" p-id="29129"></path><path d="M733.039 824.168v-32h97.9v32z" fill="#8C98A6" p-id="29130"></path><path d="M906.4 958.3h-483v-176c0-35.3 24.1-64 53.8-64h429.2c29.7 0 53.8 28.7 53.8 64v112c0 35.4-24.1 64-53.8 64z" fill="#83B29E" p-id="29131"></path><path d="M684.3 597.6c-6.1 0-12.1-0.3-18.1-0.8-66-5.9-109-41.5-150.5-75.9-36.7-30.4-71.4-59.2-119.3-62.7-64.9-4.7-136.2 39.2-212 130.5l-24.6-20.4c46.3-55.8 92.2-95.7 136.4-118.6 34.7-17.9 69.2-25.8 102.6-23.4 58.1 4.2 98.4 37.6 137.4 69.9 39.5 32.7 76.8 63.7 132.9 68.6 57.4 5.1 118.3-18.9 180.9-71.5l20.6 24.5c-63.1 53.1-125.7 79.8-186.3 79.8z" fill="#A3D1C1" p-id="29132"></path><path d="M687.6 372m-80.1 0a80.1 80.1 0 1 0 160.2 0 80.1 80.1 0 1 0-160.2 0Z" fill="#A3D1C1" p-id="29133"></path><path d="M555.3 770.8c34.4 0 51.8 14.6 51.8 43.8 0 29.4-17.4 44.2-52.2 44.2h-35.4v54.8h-23.4V770.8h59.2z m-35.8 68h34c10.4 0 18-2 22.8-5.6 4.8-3.8 7.2-10 7.2-18.6 0-8.6-2.6-14.6-7.4-18.2-4.8-3.8-12.4-5.6-22.6-5.6h-34v48zM650.5 770.8l70.6 103h0.8v-103h23.6v142.8h-22.8l-71.4-104.4h-0.8v104.4h-23.4V770.8h23.4zM878.9 780.2c10.2 8 16.6 19.8 19.2 35.8h-23.6c-2-9.2-6.4-16-12.8-20.6-6.6-4.6-15.4-6.8-26.2-6.8-13.4 0-24 4.4-31.8 13.6-8.6 9.6-12.8 23-12.8 40.6 0 16.8 3.8 29.8 11.4 38.8 8.2 9.6 21 14.4 38.4 14.4 6.8 0 13.2-0.8 19.2-2.4 5.6-1.6 10.6-3.8 15.4-6.6v-29.4h-37.8v-20h61.2V898c-7.6 6-16.2 10.4-26 13.6-10.4 3.2-21.8 4.8-34.6 4.8-22.8 0-40.4-7.2-53-21.6-11.8-13.4-17.6-30.8-17.6-52 0-21.4 5.8-39 17.6-52.8 12.4-14.8 29.2-22 50.4-22 18.4 0 32.8 4 43.4 12.2z" fill="#FFFFFF" p-id="29134"></path></svg>