<?xml version="1.0" standalone="no"?><!DOCTYPE svg PUBLIC "-//W3C//DTD SVG 1.1//EN" "http://www.w3.org/Graphics/SVG/1.1/DTD/svg11.dtd"><svg t="1586795327292" class="icon" viewBox="0 0 1024 1024" version="1.1" xmlns="http://www.w3.org/2000/svg" p-id="44974" xmlns:xlink="http://www.w3.org/1999/xlink" width="200" height="200"><defs><style type="text/css"></style></defs><path d="M751.80113 11.570621H210.932429a74.804068 74.804068 0 0 0-74.572655 74.572656v851.713446A74.804068 74.804068 0 0 0 210.932429 1012.429379h708.700565a74.804068 74.804068 0 0 0 74.572656-74.572656V254.032994z" fill="#F7E2E2" p-id="44975"></path><path d="M751.80113 179.344633a74.861921 74.861921 0 0 0 74.572655 74.630508h167.774012L751.80113 11.570621z" fill="#F49292" p-id="44976"></path><path d="M18.223729 624.813559m69.423729 0l569.853107 0q69.423729 0 69.423729 69.423729l0 185.129944q0 69.423729-69.423729 69.423728l-569.853107 0q-69.423729 0-69.423729-69.423728l0-185.129944q0-69.423729 69.423729-69.423729Z" fill="#F47F7F" p-id="44977"></path><path d="M279.314802 185.650621h354.350283v49.753673H279.314802zM279.314802 295.455819h354.350283v49.753673H279.314802zM279.314802 405.261017h472.428475v49.753672H279.314802zM279.314802 515.124068h578.126102v49.753672H279.314802z" fill="#F49292" p-id="44978"></path><path d="M249.057627 870.457853a53.051299 53.051299 0 0 1-20.942825-24.414011A94.069153 94.069153 0 0 1 220.709605 807.629379V769.446328a98.350282 98.350282 0 0 1 7.000226-38.935142 52.704181 52.704181 0 0 1 20.537853-24.703276 58.952316 58.952316 0 0 1 32.050621-8.388701 77.928136 77.928136 0 0 1 35.463955 7.578757 55.712542 55.712542 0 0 1 24.414011 24.703277L336.415819 763.661017a47.034576 47.034576 0 0 0-5.322486-21.926328 43.447684 43.447684 0 0 0-15.562486-16.835254 44.199774 44.199774 0 0 0-24.009039-6.479548 43.621243 43.621243 0 0 0-34.133333 13.364068 53.976949 53.976949 0 0 0-11.917741 37.662373v38.298757a52.530621 52.530621 0 0 0 12.0913 36.910282 43.968362 43.968362 0 0 0 34.133333 13.190509 43.042712 43.042712 0 0 0 23.83548-6.653108 44.31548 44.31548 0 0 0 15.620339-17.355932 48.075932 48.075932 0 0 0 5.264633-22.15774l2.429831 36.910283a42.811299 42.811299 0 0 1-21.116384 23.141242 80.99435 80.99435 0 0 1-35.868927 7.05808 61.844972 61.844972 0 0 1-32.802712-8.330848z m16.141017 77.63887L249.636158 940.691525a57.853107 57.853107 0 0 1-24.298305-20.827118l16.661695-14.983955a56.175367 56.175367 0 0 0 19.207232 16.083164 52.067797 52.067797 0 0 0 23.661921 5.785311 51.662825 51.662825 0 0 0 38.240904-13.653334 52.067797 52.067797 0 0 0 13.306214-38.645875V700.022599h24.529718v171.245198a89.961582 89.961582 0 0 1-8.967232 41.654237 60.398644 60.398644 0 0 1-25.918192 26.381017 86.374689 86.374689 0 0 1-40.96 9.025085zM401.500565 629.036836h24.471864V653.740113h-24.471864z m0 70.75435h24.471864v176.509831h-24.471864zM452.816271 700.022599h88.225989v21.058531H452.816271z m18.686554-24.00904q0-23.430508 10.124294-35.116836a38.240904 38.240904 0 0 1 30.54644-11.570621h28.926554v22.794124h-24.876836a19.091525 19.091525 0 0 0-15.215367 5.785311 26.785989 26.785989 0 0 0-5.033221 17.760904v200.865988h-24.471864z" fill="#FFFFFF" p-id="44979"></path></svg>