<?xml version="1.0" standalone="no"?><!DOCTYPE svg PUBLIC "-//W3C//DTD SVG 1.1//EN" "http://www.w3.org/Graphics/SVG/1.1/DTD/svg11.dtd"><svg t="1586795663778" class="icon" viewBox="0 0 1280 1024" version="1.1" xmlns="http://www.w3.org/2000/svg" p-id="54213" xmlns:xlink="http://www.w3.org/1999/xlink" width="250" height="200"><defs><style type="text/css"></style></defs><path d="M1225.4 438c0-41 6.4-65.2 6.4-109.2 0-68.4-25.2-90.4-81-90.4h-41v48.4h12.6c28.4 0 34.6 9.4 34.6 44.2 0 32.6-3.2 65.2-3.2 103 0 48.4 15.8 67.2 47.2 74.6v3.2c-31.6 7.4-47.2 26.2-47.2 74.6 0 37.8 3.2 68.4 3.2 103 0 35.8-7.4 45.2-34.6 45.2v1h-12.6V786h41c55.6 0 81-22 81-90.4 0-45.2-6.4-68.4-6.4-109.2 0-22 13.6-45.2 54.6-47.2v-54.6c-41-1.4-54.6-24.6-54.6-46.6z m-211.2 64c-31.6-12.6-61-20-61-41 0-15.8 12.6-25.2 35.8-25.2s44.2 9.4 67.2 26.2l42-55.6c-26.2-20-62-41-110.4-41-71.4 0-119.8 41-119.8 98.8 0 51.4 45.2 77.8 83 92.4 32.6 12.6 64.2 23.2 64.2 44.2 0 15.8-12.6 26.2-41 26.2-26.2 0-52.6-10.6-81-32.6l-42 61c31.6 26.2 79.8 44.2 119.8 44.2 84 0 129.2-44.2 129.2-102s-45-82-86-95.6z m-717.8 118.8c-7.4 0-16.8-6.4-16.8-26.2V238.2H130.4c-56.8 0-82 22-82 90.4 0 45.2 6.4 70.4 6.4 109.2 0 22-13.6 45.2-54.6 47.2v54.6c41 1 54.6 24.2 54.6 46.2 0 38.8-6.4 62-6.4 107.2 0 68.4 25.2 90.4 81 90.4h41v-48.4h-12.6c-26.2 0-34.6-10.6-34.6-45.2s3.2-64.2 3.2-103c0-48.4-15.8-67.2-47.2-74.6v-3.2c31.6-7.4 47.2-26.2 47.2-74.6 0-37.8-3.2-68.4-3.2-103s7.4-44.2 34.6-44.2H186v301.6c0 64.2 22 106.2 86.2 106.2 20 0 35.8-3.2 47.2-7.4l-10.6-68.4c-6.2 1.6-9.2 1.6-12.4 1.6zM759.8 502c-32.6-12.6-62-20-62-41 0-15.8 12.6-25.2 35.8-25.2 23.2 0 44.2 9.4 67.2 26.2l42-55.6c-26.2-20-62-41-110.4-41-71.4 0-119.8 41-119.8 98.8 0 51.4 45.2 77.8 83 92.4 32.6 12.6 64.2 23.2 64.2 44.2 0 15.8-12.6 26.2-41 26.2-26.2 0-52.6-10.6-81-32.6l-41 61c31.6 26.2 79.8 44.2 119.8 44.2 84 0 129.2-44.2 129.2-102 0.2-57.8-45-82-86-95.6z m-310-137.6c-76.8 0-150.2 64.2-148.2 165 0 104 68.4 165 158.6 165 37.8 0 79.8-13.6 112.4-35.8l-31.6-55.6c-23.2 13.6-45.2 20-68.4 20-42 0-74.6-20-83-68.4H580c1-7.4 3.2-22 3.2-38.8 1.2-85.2-45.2-151.4-133.4-151.4z m-60 132.4c6.4-42 31.6-62 61-62 37.8 0 52.6 26.2 52.6 62h-113.6z" fill="#4c59e0" p-id="54214"></path></svg>