<?xml version="1.0" standalone="no"?><!DOCTYPE svg PUBLIC "-//W3C//DTD SVG 1.1//EN" "http://www.w3.org/Graphics/SVG/1.1/DTD/svg11.dtd"><svg t="1586795694015" class="icon" viewBox="0 0 1024 1024" version="1.1" xmlns="http://www.w3.org/2000/svg" p-id="54923" xmlns:xlink="http://www.w3.org/1999/xlink" width="200" height="200"><defs><style type="text/css"></style></defs><path d="M856.96 565.22666667c-33.38666667 0.21333333-62.4 8.21333333-86.61333333 20.16-8.96-17.70666667-17.92-33.28-19.41333334-44.8-1.70666667-13.44-3.73333333-21.65333333-1.70666666-37.76 2.02666667-16.10666667 11.41333333-38.82666667 11.41333333-40.74666667-0.21333333-1.70666667-2.02666667-9.92-21.33333333-10.13333333-19.2-0.21333333-35.84 3.73333333-37.76 8.74666666-1.92 5.01333333-5.65333333 16.64-8 28.58666667-3.41333333 17.6-38.50666667 79.78666667-58.45333334 112.42666667-6.50666667-12.69333333-12.16-23.89333333-13.22666666-32.85333334-1.70666667-13.44-3.73333333-21.65333333-1.70666667-37.76s11.41333333-38.82666667 11.41333333-40.74666666c-0.21333333-1.70666667-2.02666667-9.92-21.33333333-10.13333334-19.2-0.21333333-35.84 3.73333333-37.76 8.74666667-1.92 5.01333333-3.94666667 16.96-8 28.58666667-3.94666667 11.62666667-50.56 115.41333333-62.72 142.50666666-6.18666667 13.86666667-11.62666667 24.85333333-15.46666667 32.32-3.94666667 7.46666667-0.21333333 0.53333333-0.53333333 1.28-3.41333333 6.4-5.22666667 9.92-5.22666667 9.92v0.21333334c-2.66666667 4.69333333-5.44 9.17333333-6.72 9.17333333-0.96 0-2.77333333-12.48 0.42666667-29.65333333 6.93333333-36.05333333 23.68-92.26666667 23.57333333-94.29333334 0-0.96 3.2-10.88-10.88-15.89333333-13.65333333-5.01333333-18.45333333 3.41333333-19.62666666 3.41333333s-2.02666667 2.98666667-2.02666667 2.98666667S480.32 516.26666667 436.26666667 516.26666667c-27.62666667 0-65.70666667 30.08-84.58666667 57.49333333-11.94666667 6.50666667-37.33333333 20.37333333-64.21333333 35.09333333-10.24 5.65333333-20.90666667 11.62666667-31.04 16.96l-2.02666667-2.24c-53.44-56.96-152.21333333-97.28-148.05333333-173.86666666 1.49333333-27.84 11.2-101.22666667 189.76-190.08 146.24-72.85333333 263.36-52.8 283.62666666-8.42666667 28.90666667 63.46666667-62.61333333 181.54666667-214.61333333 198.50666667-57.92 6.50666667-88.32-15.89333333-96-24.32-8-8.74666667-9.17333333-9.17333333-12.16-7.46666667-4.90666667 2.66666667-1.92 10.45333333 0 15.14666667 4.48 11.73333333 23.14666667 32.64 54.93333333 43.09333333 27.84 9.17333333 95.78666667 14.18666667 178.02666667-17.6 92.05333333-35.62666667 163.94666667-134.61333333 142.82666667-217.38666667-21.44-84.26666667-161.17333333-111.89333333-293.22666667-64.96-78.61333333 28.05333333-163.73333333 71.68-225.06666667 129.06666667C41.6 373.44 30.08 432.74666667 34.88 457.38666667c16.96 88 138.24 145.28 186.77333333 187.73333333-2.45333333 1.28-4.69333333 2.66666667-6.72 3.73333333-24.32 11.94666667-116.69333333 60.37333333-139.84 111.46666667-26.13333333 57.92 4.16 99.52 24.32 105.17333333 62.4 17.38666667 126.29333333-13.86666667 160.74666667-65.17333333 34.34666667-51.30666667 30.29333333-118.08 14.4-148.48l-0.53333333-1.17333333 19.09333333-11.2c12.37333333-7.25333333 24.42666667-13.97333333 35.09333333-19.84-5.97333333 16.21333333-10.24 35.52-12.48 63.46666666-2.66666667 32.85333333 10.88 75.41333333 28.58666667 92.26666667 7.89333333 7.25333333 17.17333333 7.46666667 22.93333333 7.46666667 20.58666667 0 29.86666667-16.96 40.10666667-37.33333334 12.69333333-24.85333333 23.89333333-53.54666667 23.89333333-53.54666666s-13.97333333 77.86666667 24.32 77.86666666c13.97333333 0 28.05333333-18.13333333 34.34666667-27.41333333v0.21333333s0.42666667-0.53333333 1.17333333-1.92c1.49333333-2.24 2.24-3.52 2.24-3.52v-0.42666666c5.65333333-9.70666667 18.13333333-31.89333333 36.8-68.69333334 24.10666667-47.46666667 47.25333333-106.77333333 47.25333334-106.77333333s2.24 14.61333333 9.17333333 38.50666667c4.16 14.18666667 13.12 29.65333333 19.94666667 44.8-5.65333333 7.89333333-8.96 12.37333333-8.96 12.37333333l0.21333333 0.21333333c-4.48 5.97333333-9.49333333 12.37333333-14.72 18.66666667-19.09333333 22.82666667-41.81333333 48.74666667-44.8 56.21333333-3.52 8.74666667-2.77333333 15.36 4.16 20.58666667 5.01333333 3.73333333 13.97333333 4.48 23.57333333 3.73333333 17.17333333-1.17333333 29.12-5.44 35.09333334-8 9.38666667-3.41333333 19.94666667-8.42666667 30.29333333-15.89333333 18.66666667-13.86666667 30.08-33.38666667 28.90666667-59.62666667-0.53333333-14.4-5.22666667-28.58666667-10.98666667-42.02666666 1.70666667-2.45333333 3.41333333-4.90666667 5.01333333-7.46666667 29.54666667-43.09333333 52.26666667-90.56 52.26666667-90.56s2.24 14.61333333 9.17333333 38.50666667c3.52 12.16 10.66666667 25.38666667 16.96 38.50666666-27.62666667 22.61333333-45.01333333 48.74666667-50.98666666 65.92-10.98666667 31.78666667-2.45333333 46.08 13.86666666 49.49333334 7.25333333 1.49333333 17.70666667-1.92 25.6-5.22666667 9.70666667-3.2 21.44-8.64 32.32-16.64 18.66666667-13.86666667 36.58666667-33.06666667 35.62666667-58.98666667-0.53333333-11.94666667-3.73333333-23.68-8-34.88 23.57333333-9.70666667 53.97333333-15.36 92.58666667-10.66666666 83.09333333 9.70666667 99.52 61.65333333 96.32 83.30666666-3.2 21.65333333-20.58666667 33.6-26.34666667 37.33333334-5.76 3.52-7.68 4.90666667-7.14666667 7.46666666 0.74666667 3.94666667 3.41333333 3.73333333 8.42666667 2.98666667 6.93333333-1.17333333 43.73333333-17.70666667 45.22666667-57.70666667 2.02666667-51.52-46.72-107.62666667-133.22666667-106.98666666zM216.10666667 781.22666667c-27.41333333 30.08-66.13333333 41.49333333-82.56 31.78666666-17.70666667-10.24-10.88-54.50666667 22.93333333-86.50666666 20.58666667-19.41333333 47.25333333-37.33333333 64.85333333-48.32 3.94666667-2.45333333 9.92-5.97333333 16.96-10.24 1.17333333-0.74666667 1.92-1.17333333 1.92-1.17333334 1.28-0.74666667 2.77333333-1.70666667 4.26666667-2.66666666 12.48 45.65333333 0.53333333 85.65333333-28.37333333 117.12z m200.74666666-136.42666667c-9.49333333 23.36-29.65333333 83.30666667-41.81333333 79.89333333-10.45333333-2.77333333-16.85333333-48.21333333-2.02666667-93.01333333 7.46666667-22.61333333 23.36-49.49333333 32.64-59.94666667 15.14666667-16.85333333 31.57333333-22.4 35.62666667-15.46666666 4.90666667 8.96-18.45333333 73.92-24.42666667 88.53333333z m165.65333334 79.14666667c-4.16 2.02666667-7.89333333 3.52-9.49333334 2.45333333-1.28-0.74666667 1.70666667-3.52 1.70666667-3.52s20.69333333-22.18666667 28.90666667-32.53333333c4.69333333-5.97333333 10.24-12.90666667 16.21333333-20.69333334v2.24c0 26.88-25.81333333 44.8-37.33333333 52.05333334z m127.68-29.12c-2.98666667-2.24-2.66666667-9.17333333 7.46666666-30.82666667 3.94666667-8.64 12.90666667-22.93333333 28.37333334-36.58666667 1.92 5.65333333 2.98666667 10.98666667 2.77333333 16.10666667-0.10666667 33.49333333-24 46.08-38.61333333 51.30666667z" fill="#CF649A" p-id="54924"></path></svg>