<?xml version="1.0" standalone="no"?><!DOCTYPE svg PUBLIC "-//W3C//DTD SVG 1.1//EN" "http://www.w3.org/Graphics/SVG/1.1/DTD/svg11.dtd"><svg t="1586794515758" class="icon" viewBox="0 0 1024 1024" version="1.1" xmlns="http://www.w3.org/2000/svg" p-id="3392" xmlns:xlink="http://www.w3.org/1999/xlink" width="200" height="200"><defs><style type="text/css"></style></defs><path d="M10.24 458.752l285.696-300.032v152.576l-194.56 196.608v2.048l193.536 197.632v153.6L10.24 560.128z m717.824 249.856L921.6 512v-2.048L728.064 313.344V160.768L1013.76 460.8v105.472L728.064 866.304z" fill="#0090E0" p-id="3393"></path><path d="M390.144 441.344h-80.896v-38.912h207.872v38.912h-81.92v208.896h-45.056V441.344z m182.272 145.408s26.624 26.624 61.44 26.624c18.432 0 35.84-10.24 35.84-29.696 0-44.032-116.736-36.864-116.736-112.64 0-40.96 35.84-71.68 82.944-71.68 49.152 0 73.728 26.624 73.728 26.624l-19.456 36.864s-23.552-21.504-54.272-21.504c-21.504 0-36.864 12.288-36.864 29.696 0 44.032 116.736 32.768 116.736 111.616 0 39.936-29.696 72.704-81.92 72.704-55.296 0-84.992-33.792-84.992-33.792l23.552-34.816z" fill="#0090E0" p-id="3394"></path></svg>